<?xml version="1.0" standalone="no"?>
<!DOCTYPE svg PUBLIC "-//W3C//DTD SVG 20010904//EN"
 "http://www.w3.org/TR/2001/REC-SVG-20010904/DTD/svg10.dtd">
<svg version="1.0" xmlns="http://www.w3.org/2000/svg"
 width="512.000000pt" height="512.000000pt" viewBox="0 0 512.000000 512.000000"
 preserveAspectRatio="xMidYMid meet">

<g transform="translate(0.000000,512.000000) scale(0.100000,-0.100000)"
fill="#000000" stroke="none">
<path d="M2361 5109 c-754 -85 -1383 -591 -1620 -1304 -52 -156 -78 -287 -93
-462 l-12 -143 -313 0 c-172 0 -313 -1 -313 -3 0 -21 393 -2746 401 -2782 31
-139 141 -282 268 -349 135 -71 12 -67 1908 -64 l1708 3 59 23 c167 63 287
185 336 340 14 43 93 566 219 1450 l198 1382 -312 0 -311 0 -12 143 c-15 175
-41 306 -93 462 -226 680 -806 1172 -1519 1290 -117 19 -386 27 -499 14z m494
-229 c458 -78 874 -354 1135 -751 158 -240 252 -526 275 -836 l7 -93 -1712 0
-1712 0 7 93 c24 319 120 604 284 849 138 205 278 344 480 478 365 244 798
335 1236 260z m2005 -1892 c0 -29 -363 -2529 -370 -2556 -26 -86 -120 -178
-209 -204 -38 -11 -355 -13 -1736 -13 l-1690 0 -57 27 c-67 31 -128 91 -158
156 -18 38 -56 279 -204 1312 -100 696 -180 1268 -178 1273 3 6 4602 11 4602
5z"/>
</g>
</svg>
