<svg width="145" height="32" viewBox="0 0 145 32" fill="none" xmlns="http://www.w3.org/2000/svg">
<g clip-path="url(#clip0_4_18)">
<path d="M-0.000116272 10.2143C1.40659 11.1537 2.85747 11.5885 4.04794 11.5885C6.2824 11.5885 7.06132 10.2329 7.06132 7.55669V2.38326C7.06132 1.15559 6.79857 0.423174 6.02198 0H10.7257C9.92588 0.446426 9.68174 1.18349 9.68174 2.38094V7.60086C9.68174 11.628 8.21458 13.523 4.35486 13.523C2.68774 13.523 1.53215 13.0998 0.820656 13.0998C0.574192 13.0998 0.304476 13.1882 -0.00244141 13.3439V10.2143H-0.000116272Z" fill="#FCF9EE"/>
<path d="M27.4598 8.47512C27.4598 5.35712 25.4369 3.52026 21.8888 3.52026C18.3406 3.52026 16.3247 5.57103 16.3247 8.59603C16.3247 11.621 18.3336 13.4486 21.8888 13.4486C25.4439 13.4486 27.4598 11.335 27.4598 8.47745M21.7609 11.6978C19.8775 11.6978 18.78 10.5794 18.78 8.64021C18.78 6.47086 19.9403 5.25249 22.0143 5.25249C23.8884 5.25249 24.9905 6.3639 24.9905 8.34492C24.9905 10.4678 23.8163 11.6978 21.7609 11.6978Z" fill="#FCF9EE"/>
<path d="M43.5962 10.8374C43.5962 12.0279 43.8752 12.772 44.6471 13.2068H40.2317C41.0013 12.772 41.2664 12.0279 41.2664 10.8374V2.38094C41.2664 1.15327 41.0013 0.423174 40.2317 0H45.6702C45.5865 0.155784 45.5307 0.292967 45.5307 0.423174C45.5307 0.530131 45.5865 0.695215 45.6702 0.906802L49.6903 10.8142L53.7988 0.883551C53.8593 0.716141 53.9058 0.560357 53.9058 0.465027C53.9058 0.332494 53.8407 0.17671 53.7454 0H59.3001C58.5212 0.423174 58.2654 1.15559 58.2654 2.38094V10.8374C58.2654 11.9233 58.4119 12.5836 59.2118 13.2068H54.7754C55.5985 12.5627 55.7171 11.8954 55.7171 10.8374V1.95776L51.1691 12.3604C51.1017 12.5441 51.0389 12.6836 51.0389 12.8068C51.0389 12.9022 51.0784 13.0301 51.1691 13.2068H48.0883C48.1534 13.0301 48.1953 12.9022 48.1953 12.8626C48.1953 12.7231 48.1232 12.5627 48.0465 12.3511L43.5915 1.73222V10.8351L43.5962 10.8374Z" fill="#FCF9EE"/>
<path d="M76.3877 11.5141L73.2673 4.51309C73.1674 4.31313 73.1232 4.16897 73.1232 4.08992C73.1232 4.00156 73.1883 3.88996 73.2557 3.74115H69.31C69.389 3.90391 69.4216 4.00156 69.4216 4.07364C69.4216 4.16897 69.3774 4.32941 69.289 4.51309L65.9106 11.5141C65.5991 12.1721 65.2828 12.7371 64.7922 13.2091H68.4497C68.2172 12.9998 68.0869 12.7208 68.0869 12.3325C68.0869 12.093 68.1335 11.8535 68.1939 11.714L68.4055 11.2537H73.8672L74.1393 11.8652C74.1881 11.9861 74.2486 12.2093 74.2486 12.4441C74.2486 12.7371 74.1393 12.9557 73.9044 13.2068H77.5084C77.0573 12.751 76.6899 12.1721 76.3854 11.5117M69.1844 9.53073L71.0957 5.09903L73.1581 9.53073H69.1844Z" fill="#FCF9EE"/>
<path d="M83.2283 3.74115H87.1926C86.6416 3.97831 86.3486 4.5317 86.3486 5.35944V11.5815H89.0434C90.5571 11.5815 91.7336 11.2885 92.7567 10.4585C92.2289 11.8047 91.8499 12.5604 91.8499 12.7975C91.8499 12.9208 91.9219 13.058 92.0428 13.2091H83.2306C83.7863 12.958 84.0211 12.4418 84.0211 11.5815V5.35944C84.0211 4.50147 83.7863 3.98064 83.2306 3.74115" fill="#FCF9EE"/>
<path d="M109.142 8.47512C109.142 5.35712 107.117 3.52026 103.554 3.52026C99.9924 3.52026 97.9998 5.57103 97.9998 8.59603C97.9998 11.621 100.006 13.4486 103.554 13.4486C107.103 13.4486 109.142 11.335 109.142 8.47745M103.438 11.6978C101.553 11.6978 100.453 10.5794 100.453 8.64021C100.453 6.47086 101.62 5.25249 103.687 5.25249C105.573 5.25249 106.668 6.3639 106.668 8.34492C106.668 10.4678 105.484 11.6978 103.438 11.6978Z" fill="#FCF9EE"/>
<path d="M118.577 11.5583C118.593 12.4418 118.768 12.9208 119.379 13.2091H115.638C116.217 12.958 116.438 12.4418 116.438 11.5583V5.38734C116.438 4.51077 116.219 3.98064 115.638 3.74115H120.279C120.214 3.85276 120.179 3.92484 120.179 3.97599C120.179 4.03644 120.23 4.16897 120.309 4.32941L124.006 11.4745L123.974 5.38734C123.974 4.51077 123.702 3.97599 123.144 3.74115H126.792C126.041 4.10852 126.029 4.64098 126.029 5.35944V12.4046C126.029 12.7371 126.057 12.9882 126.248 13.2068H122.446C122.53 13.0859 122.551 12.9882 122.551 12.9185C122.551 12.8627 122.504 12.7696 122.428 12.6069L118.412 5.24086L118.575 11.5559L118.577 11.5583Z" fill="#FCF9EE"/>
<path d="M135.002 11.5815V5.35944C135.002 4.50147 134.762 3.98064 134.2 3.74115H144.142C144.03 3.87368 143.986 4.00156 143.986 4.11317C143.986 4.31313 144.233 4.95952 144.572 6.17092C143.5 5.51988 142.391 5.35944 141.101 5.35944H137.325V7.55669H141.491C142.059 7.55669 142.454 7.44044 142.763 7.31721L141.973 8.65183C141.763 9.00758 141.417 9.19591 140.994 9.19591H137.325V11.5815H141.305C142.889 11.5815 144.142 11.1909 145.002 10.4585C144.474 11.8047 144.112 12.5604 144.112 12.7975C144.112 12.9208 144.172 13.058 144.284 13.2091H134.202C134.765 12.9719 135.004 12.4465 135.004 11.5815" fill="#FCF9EE"/>
<path d="M44.4147 25.3858H46.7282C46.3562 25.5765 46.2004 25.9462 46.2004 26.5251V30.9405H48.207C49.3137 30.9405 50.1531 30.729 50.753 30.2895C50.5414 30.8778 50.3252 31.2405 50.3252 31.4777C50.3252 31.5451 50.3321 31.6776 50.3717 31.8497H44.4124C44.7797 31.6404 44.9192 31.2986 44.9192 30.708V26.5274C44.9192 25.9438 44.7681 25.5811 44.4124 25.3881" fill="#FCF9EE"/>
<path d="M54.843 29.3967C54.843 30.9685 55.8986 31.9706 57.6495 31.9706C59.4956 31.9706 60.5954 30.8941 60.5954 29.3455C60.5954 27.797 59.5282 26.7716 57.7773 26.7716C55.9265 26.7716 54.843 27.8342 54.843 29.3967ZM57.7797 27.518C58.8934 27.518 59.5258 28.176 59.5258 29.3362C59.5258 30.4965 58.826 31.2196 57.6402 31.2196C56.5404 31.2196 55.8731 30.543 55.8731 29.4199C55.8731 28.2295 56.5915 27.518 57.7797 27.518Z" fill="#FCF9EE"/>
<path d="M66.1035 27.5784L68.6891 31.5544C68.7332 31.6265 68.7565 31.6753 68.7565 31.6985C68.7565 31.7357 68.7379 31.7869 68.71 31.8474H70.3213C70.226 31.6916 70.2097 31.559 70.2097 31.387V27.7505C70.2097 27.3738 70.2167 27.1018 70.5724 26.8925H68.9378C69.2169 27.032 69.3285 27.3203 69.3285 27.7784L69.3378 31.0359L66.8917 27.1506C66.8476 27.0901 66.8313 27.046 66.8313 27.018C66.8313 26.9785 66.8429 26.939 66.8638 26.8902H64.8828C65.1828 27.0576 65.2665 27.3296 65.2665 27.776V30.9406C65.2665 31.4033 65.1828 31.6799 64.8828 31.8427H66.5616C66.2407 31.659 66.1779 31.3986 66.1663 30.9406L66.1058 27.5761L66.1035 27.5784Z" fill="#FCF9EE"/>
<path d="M77.4131 26.8925H74.8113C75.1089 27.0599 75.1926 27.3319 75.1926 27.7784V30.9429C75.1926 31.4079 75.1089 31.6823 74.8113 31.8473H77.4457C79.3685 31.8473 80.459 30.908 80.459 29.3013C80.459 28.4992 80.1196 27.8016 79.5243 27.3761C79.0198 26.9994 78.3222 26.8925 77.4131 26.8925ZM76.1831 31.1428V27.597H77.1713C78.6826 27.597 79.429 28.0016 79.429 29.3362C79.429 30.6708 78.7454 31.1428 77.2666 31.1428H76.1831Z" fill="#FCF9EE"/>
<path d="M84.8442 29.3967C84.8442 30.9685 85.8975 31.9706 87.6623 31.9706C89.4271 31.9706 90.5943 30.8941 90.5943 29.3455C90.5943 27.797 89.5364 26.7716 87.7809 26.7716C85.9347 26.7716 84.8442 27.8342 84.8442 29.3967ZM87.7925 27.518C88.8969 27.518 89.534 28.176 89.534 29.3362C89.534 30.4965 88.8388 31.2196 87.653 31.2196C86.5486 31.2196 85.8812 30.543 85.8812 29.4199C85.8812 28.2295 86.5974 27.518 87.7925 27.518Z" fill="#FCF9EE"/>
<path d="M96.1816 30.9429C96.1909 31.4032 96.2583 31.6613 96.5769 31.845H94.8818C95.1888 31.6823 95.2725 31.4056 95.2725 30.9429V27.7784C95.2725 27.3319 95.1888 27.0599 94.8818 26.8925H96.8768C96.8582 26.9413 96.8326 26.9808 96.8326 27.0204C96.8326 27.0483 96.8652 27.0924 96.9001 27.1529L99.3461 31.0382L99.3345 27.7807C99.3345 27.3203 99.2298 27.0343 98.9462 26.8948H100.588C100.22 27.1064 100.216 27.3784 100.216 27.7528V31.3893C100.216 31.5614 100.234 31.6939 100.327 31.8497H98.7206C98.7532 31.7892 98.7718 31.7381 98.7718 31.7009C98.7718 31.6776 98.7392 31.6288 98.7044 31.5567L96.1188 27.5784L96.1793 30.9429H96.1816Z" fill="#FCF9EE"/>
</g>
<defs>
<clipPath id="clip0_4_18">
<rect width="145" height="31.9706" fill="white"/>
</clipPath>
</defs>
</svg>
