<?xml version="1.0" standalone="no"?>
<!DOCTYPE svg PUBLIC "-//W3C//DTD SVG 20010904//EN"
 "http://www.w3.org/TR/2001/REC-SVG-20010904/DTD/svg10.dtd">
<svg version="1.0" xmlns="http://www.w3.org/2000/svg"
 width="25.000000pt" height="25.000000pt" viewBox="0 0 25.000000 25.000000"
 preserveAspectRatio="xMidYMid meet">

<g transform="translate(0.000000,25.000000) scale(0.100000,-0.100000)"
fill="#000000" stroke="none">
<path d="M81 224 c-11 -15 -21 -32 -21 -38 0 -21 31 -56 48 -55 13 0 12 2 -5
9 -48 20 -31 100 22 100 53 0 70 -80 22 -101 -19 -8 -20 -9 -2 -6 10 1 26 14
34 29 14 25 14 29 -5 55 -29 39 -66 41 -93 7z"/>
<path d="M57 74 c-27 -27 -43 -61 -33 -71 3 -4 6 1 6 10 0 8 12 29 26 46 21
26 33 31 69 31 36 0 48 -5 69 -31 14 -17 26 -38 26 -46 0 -9 3 -13 6 -10 11
11 -17 65 -42 82 -38 24 -97 19 -127 -11z"/>
</g>
</svg>
